<mxfile host="app.diagrams.net" agent="Mozilla/5.0 (Windows NT 10.0; Win64; x64) AppleWebKit/537.36 (KHTML, like Gecko) Chrome/131.0.0.0 Safari/537.36" version="24.8.2">
  <diagram name="Halaman-1" id="tubBhJw3JJx4dtEUxwo_">
    <mxGraphModel dx="2428" dy="1012" grid="1" gridSize="10" guides="1" tooltips="1" connect="1" arrows="1" fold="1" page="1" pageScale="1" pageWidth="827" pageHeight="1169" math="0" shadow="0">
      <root>
        <mxCell id="0" />
        <mxCell id="1" parent="0" />
        <mxCell id="05znYk8Q_HuLaMp4aP0s-10" value="" style="edgeStyle=orthogonalEdgeStyle;rounded=0;orthogonalLoop=1;jettySize=auto;html=1;" edge="1" parent="1" source="05znYk8Q_HuLaMp4aP0s-1" target="05znYk8Q_HuLaMp4aP0s-5">
          <mxGeometry relative="1" as="geometry" />
        </mxCell>
        <mxCell id="05znYk8Q_HuLaMp4aP0s-1" value="Mulai" style="ellipse;whiteSpace=wrap;html=1;" vertex="1" parent="1">
          <mxGeometry x="265" y="94" width="123.2" height="56" as="geometry" />
        </mxCell>
        <mxCell id="05znYk8Q_HuLaMp4aP0s-2" value="&lt;h1 style=&quot;margin-top: 0px;&quot;&gt;&lt;font style=&quot;font-size: 18px;&quot;&gt;FITUR 1 INPUT BAHAN MAKANAN&lt;/font&gt;&lt;/h1&gt;" style="text;html=1;whiteSpace=wrap;overflow=hidden;rounded=0;" vertex="1" parent="1">
          <mxGeometry x="179" y="43" width="303" height="47" as="geometry" />
        </mxCell>
        <mxCell id="05znYk8Q_HuLaMp4aP0s-11" value="" style="edgeStyle=orthogonalEdgeStyle;rounded=0;orthogonalLoop=1;jettySize=auto;html=1;" edge="1" parent="1" source="05znYk8Q_HuLaMp4aP0s-5" target="05znYk8Q_HuLaMp4aP0s-8">
          <mxGeometry relative="1" as="geometry" />
        </mxCell>
        <mxCell id="05znYk8Q_HuLaMp4aP0s-5" value="Masukkan nama bahan makanan, tanggal kadaluwarsa, dan jumlah stok&amp;nbsp;" style="shape=parallelogram;perimeter=parallelogramPerimeter;whiteSpace=wrap;html=1;fixedSize=1;" vertex="1" parent="1">
          <mxGeometry x="196" y="188" width="260" height="90" as="geometry" />
        </mxCell>
        <mxCell id="05znYk8Q_HuLaMp4aP0s-12" value="" style="edgeStyle=orthogonalEdgeStyle;rounded=0;orthogonalLoop=1;jettySize=auto;html=1;" edge="1" parent="1" source="05znYk8Q_HuLaMp4aP0s-8" target="05znYk8Q_HuLaMp4aP0s-9">
          <mxGeometry relative="1" as="geometry" />
        </mxCell>
        <mxCell id="05znYk8Q_HuLaMp4aP0s-8" value="Data dimasukkan kedalam array" style="rounded=0;whiteSpace=wrap;html=1;" vertex="1" parent="1">
          <mxGeometry x="236" y="322" width="180" height="90" as="geometry" />
        </mxCell>
        <mxCell id="05znYk8Q_HuLaMp4aP0s-9" value="Selesai" style="ellipse;whiteSpace=wrap;html=1;" vertex="1" parent="1">
          <mxGeometry x="264" y="470" width="123.2" height="56" as="geometry" />
        </mxCell>
        <mxCell id="05znYk8Q_HuLaMp4aP0s-13" value="&lt;h1 style=&quot;margin-top: 0px;&quot;&gt;&lt;font style=&quot;font-size: 18px;&quot;&gt;FITUR 2 MENAMPILKAN DAFTAR BAHAN&lt;/font&gt;&lt;/h1&gt;" style="text;html=1;whiteSpace=wrap;overflow=hidden;rounded=0;" vertex="1" parent="1">
          <mxGeometry x="541" y="43" width="366" height="47" as="geometry" />
        </mxCell>
        <mxCell id="05znYk8Q_HuLaMp4aP0s-19" value="" style="edgeStyle=orthogonalEdgeStyle;rounded=0;orthogonalLoop=1;jettySize=auto;html=1;" edge="1" parent="1" source="05znYk8Q_HuLaMp4aP0s-14" target="05znYk8Q_HuLaMp4aP0s-15">
          <mxGeometry relative="1" as="geometry" />
        </mxCell>
        <mxCell id="05znYk8Q_HuLaMp4aP0s-14" value="Mulai" style="ellipse;whiteSpace=wrap;html=1;" vertex="1" parent="1">
          <mxGeometry x="652.4" y="94" width="123.2" height="56" as="geometry" />
        </mxCell>
        <mxCell id="05znYk8Q_HuLaMp4aP0s-20" value="" style="edgeStyle=orthogonalEdgeStyle;rounded=0;orthogonalLoop=1;jettySize=auto;html=1;" edge="1" parent="1" source="05znYk8Q_HuLaMp4aP0s-15" target="05znYk8Q_HuLaMp4aP0s-16">
          <mxGeometry relative="1" as="geometry" />
        </mxCell>
        <mxCell id="05znYk8Q_HuLaMp4aP0s-15" value="Mengambil daftar bahan makanan dari array" style="rounded=0;whiteSpace=wrap;html=1;" vertex="1" parent="1">
          <mxGeometry x="624" y="188" width="180" height="90" as="geometry" />
        </mxCell>
        <mxCell id="05znYk8Q_HuLaMp4aP0s-21" value="" style="edgeStyle=orthogonalEdgeStyle;rounded=0;orthogonalLoop=1;jettySize=auto;html=1;" edge="1" parent="1" source="05znYk8Q_HuLaMp4aP0s-16">
          <mxGeometry relative="1" as="geometry">
            <mxPoint x="713.9999999999998" y="453" as="targetPoint" />
          </mxGeometry>
        </mxCell>
        <mxCell id="05znYk8Q_HuLaMp4aP0s-16" value="Cek status kadaluwarsa setiap bahan" style="rounded=0;whiteSpace=wrap;html=1;" vertex="1" parent="1">
          <mxGeometry x="624" y="320" width="180" height="90" as="geometry" />
        </mxCell>
        <mxCell id="05znYk8Q_HuLaMp4aP0s-22" value="" style="edgeStyle=orthogonalEdgeStyle;rounded=0;orthogonalLoop=1;jettySize=auto;html=1;" edge="1" parent="1" target="05znYk8Q_HuLaMp4aP0s-18">
          <mxGeometry relative="1" as="geometry">
            <mxPoint x="713.9999999999998" y="543" as="sourcePoint" />
          </mxGeometry>
        </mxCell>
        <mxCell id="05znYk8Q_HuLaMp4aP0s-18" value="Selesai" style="ellipse;whiteSpace=wrap;html=1;" vertex="1" parent="1">
          <mxGeometry x="652.4" y="584.5" width="123.2" height="56" as="geometry" />
        </mxCell>
        <mxCell id="05znYk8Q_HuLaMp4aP0s-23" value="&lt;h1 style=&quot;margin-top: 0px;&quot;&gt;&lt;font style=&quot;font-size: 18px;&quot;&gt;FITUR 3&amp;nbsp; HAPUS BAHAN MAKANAN&lt;/font&gt;&lt;/h1&gt;" style="text;html=1;whiteSpace=wrap;overflow=hidden;rounded=0;align=center;" vertex="1" parent="1">
          <mxGeometry x="920" y="43" width="366" height="47" as="geometry" />
        </mxCell>
        <mxCell id="05znYk8Q_HuLaMp4aP0s-24" value="&lt;h1 style=&quot;margin-top: 0px;&quot;&gt;&lt;font style=&quot;font-size: 18px;&quot;&gt;FITUR 4 MENCARI BAHAN MAKANAN&lt;/font&gt;&lt;/h1&gt;" style="text;html=1;whiteSpace=wrap;overflow=hidden;rounded=0;align=center;" vertex="1" parent="1">
          <mxGeometry x="1289" y="43" width="366" height="47" as="geometry" />
        </mxCell>
        <mxCell id="05znYk8Q_HuLaMp4aP0s-30" value="" style="edgeStyle=orthogonalEdgeStyle;rounded=0;orthogonalLoop=1;jettySize=auto;html=1;" edge="1" parent="1" source="05znYk8Q_HuLaMp4aP0s-25" target="05znYk8Q_HuLaMp4aP0s-26">
          <mxGeometry relative="1" as="geometry" />
        </mxCell>
        <mxCell id="05znYk8Q_HuLaMp4aP0s-25" value="Mulai" style="ellipse;whiteSpace=wrap;html=1;" vertex="1" parent="1">
          <mxGeometry x="1054" y="94" width="123.2" height="56" as="geometry" />
        </mxCell>
        <mxCell id="05znYk8Q_HuLaMp4aP0s-31" value="" style="edgeStyle=orthogonalEdgeStyle;rounded=0;orthogonalLoop=1;jettySize=auto;html=1;" edge="1" parent="1" source="05znYk8Q_HuLaMp4aP0s-26" target="05znYk8Q_HuLaMp4aP0s-27">
          <mxGeometry relative="1" as="geometry" />
        </mxCell>
        <mxCell id="05znYk8Q_HuLaMp4aP0s-26" value="Memilih bahan makanan yang&amp;nbsp;&lt;div&gt;ingin dihapus&lt;/div&gt;" style="shape=parallelogram;perimeter=parallelogramPerimeter;whiteSpace=wrap;html=1;fixedSize=1;" vertex="1" parent="1">
          <mxGeometry x="985.6" y="188" width="260" height="90" as="geometry" />
        </mxCell>
        <mxCell id="05znYk8Q_HuLaMp4aP0s-32" value="" style="edgeStyle=orthogonalEdgeStyle;rounded=0;orthogonalLoop=1;jettySize=auto;html=1;" edge="1" parent="1" source="05znYk8Q_HuLaMp4aP0s-27">
          <mxGeometry relative="1" as="geometry">
            <mxPoint x="1115.6" y="453" as="targetPoint" />
          </mxGeometry>
        </mxCell>
        <mxCell id="05znYk8Q_HuLaMp4aP0s-27" value="Hapus data dari array menggunakan index bahan" style="rounded=0;whiteSpace=wrap;html=1;" vertex="1" parent="1">
          <mxGeometry x="1025.6" y="320" width="180" height="90" as="geometry" />
        </mxCell>
        <mxCell id="05znYk8Q_HuLaMp4aP0s-33" value="" style="edgeStyle=orthogonalEdgeStyle;rounded=0;orthogonalLoop=1;jettySize=auto;html=1;" edge="1" parent="1" target="05znYk8Q_HuLaMp4aP0s-29">
          <mxGeometry relative="1" as="geometry">
            <mxPoint x="1115.6" y="543" as="sourcePoint" />
          </mxGeometry>
        </mxCell>
        <mxCell id="05znYk8Q_HuLaMp4aP0s-29" value="Selesai" style="ellipse;whiteSpace=wrap;html=1;" vertex="1" parent="1">
          <mxGeometry x="1054" y="585" width="123.2" height="56" as="geometry" />
        </mxCell>
        <mxCell id="05znYk8Q_HuLaMp4aP0s-39" value="" style="edgeStyle=orthogonalEdgeStyle;rounded=0;orthogonalLoop=1;jettySize=auto;html=1;" edge="1" parent="1" source="05znYk8Q_HuLaMp4aP0s-34" target="05znYk8Q_HuLaMp4aP0s-35">
          <mxGeometry relative="1" as="geometry" />
        </mxCell>
        <mxCell id="05znYk8Q_HuLaMp4aP0s-34" value="Mulai" style="ellipse;whiteSpace=wrap;html=1;" vertex="1" parent="1">
          <mxGeometry x="1418.4" y="94" width="123.2" height="56" as="geometry" />
        </mxCell>
        <mxCell id="05znYk8Q_HuLaMp4aP0s-40" value="" style="edgeStyle=orthogonalEdgeStyle;rounded=0;orthogonalLoop=1;jettySize=auto;html=1;" edge="1" parent="1" source="05znYk8Q_HuLaMp4aP0s-35" target="05znYk8Q_HuLaMp4aP0s-36">
          <mxGeometry relative="1" as="geometry" />
        </mxCell>
        <mxCell id="05znYk8Q_HuLaMp4aP0s-35" value="Ambil input kata kunci dari&amp;nbsp;&lt;div&gt;kolom pencarian&lt;/div&gt;" style="shape=parallelogram;perimeter=parallelogramPerimeter;whiteSpace=wrap;html=1;fixedSize=1;" vertex="1" parent="1">
          <mxGeometry x="1350" y="188" width="260" height="90" as="geometry" />
        </mxCell>
        <mxCell id="05znYk8Q_HuLaMp4aP0s-41" value="" style="edgeStyle=orthogonalEdgeStyle;rounded=0;orthogonalLoop=1;jettySize=auto;html=1;" edge="1" parent="1" source="05znYk8Q_HuLaMp4aP0s-36">
          <mxGeometry relative="1" as="geometry">
            <mxPoint x="1480" y="453" as="targetPoint" />
          </mxGeometry>
        </mxCell>
        <mxCell id="05znYk8Q_HuLaMp4aP0s-36" value="Bandingkan kata kunci dengan nama bahan makanan di array" style="rounded=0;whiteSpace=wrap;html=1;" vertex="1" parent="1">
          <mxGeometry x="1390" y="322" width="180" height="90" as="geometry" />
        </mxCell>
        <mxCell id="05znYk8Q_HuLaMp4aP0s-38" value="Selesai" style="ellipse;whiteSpace=wrap;html=1;" vertex="1" parent="1">
          <mxGeometry x="1418.4" y="587" width="123.2" height="56" as="geometry" />
        </mxCell>
        <mxCell id="05znYk8Q_HuLaMp4aP0s-43" value="" style="edgeStyle=orthogonalEdgeStyle;rounded=0;orthogonalLoop=1;jettySize=auto;html=1;" edge="1" parent="1" target="05znYk8Q_HuLaMp4aP0s-45">
          <mxGeometry relative="1" as="geometry">
            <mxPoint x="1479" y="414" as="sourcePoint" />
          </mxGeometry>
        </mxCell>
        <mxCell id="05znYk8Q_HuLaMp4aP0s-44" value="" style="edgeStyle=orthogonalEdgeStyle;rounded=0;orthogonalLoop=1;jettySize=auto;html=1;" edge="1" parent="1" source="05znYk8Q_HuLaMp4aP0s-45">
          <mxGeometry relative="1" as="geometry">
            <mxPoint x="1479" y="586" as="targetPoint" />
          </mxGeometry>
        </mxCell>
        <mxCell id="05znYk8Q_HuLaMp4aP0s-45" value="Tampilkan hasil pencarian" style="shape=parallelogram;perimeter=parallelogramPerimeter;whiteSpace=wrap;html=1;fixedSize=1;" vertex="1" parent="1">
          <mxGeometry x="1349" y="452" width="260" height="90" as="geometry" />
        </mxCell>
        <mxCell id="05znYk8Q_HuLaMp4aP0s-46" value="Menampilkan data terbaru tanpa bahan&amp;nbsp;&lt;div&gt;yang dihapus.&lt;/div&gt;" style="shape=parallelogram;perimeter=parallelogramPerimeter;whiteSpace=wrap;html=1;fixedSize=1;" vertex="1" parent="1">
          <mxGeometry x="984" y="452" width="260" height="90" as="geometry" />
        </mxCell>
        <mxCell id="05znYk8Q_HuLaMp4aP0s-48" value="Menampilkan daftar bahan dalam tabel" style="shape=parallelogram;perimeter=parallelogramPerimeter;whiteSpace=wrap;html=1;fixedSize=1;" vertex="1" parent="1">
          <mxGeometry x="582" y="452" width="260" height="90" as="geometry" />
        </mxCell>
      </root>
    </mxGraphModel>
  </diagram>
</mxfile>
